<svg version="1.1"
      xmlns="http://www.w3.org/2000/svg"
      xmlns:xlink="http://www.w3.org/1999/xlink"  id="snapshot-16920" width="250" height="250" viewBox="0 0 250 250"><desc>This image was made on Patterninja.com</desc><defs>
<!-- image 17250 -->
<g id="transformed-17250" data-image="17250" transform="translate(-30.90611226708762, -30.906112267087632) rotate(32, 31.90611226708762, 31.906112267087632)"><g><svg version="1.1" width="63.81222453417524px" height="63.812224534175265px" viewBox="0 0 63.81222453417524 63.812224534175265"><g id="original-17250"><svg xmlns="http://www.w3.org/2000/svg" viewBox="0 0 400 400" xmlns:xlink="http://www.w3.org/1999/xlink" version="1.1" preserveAspectRatio="xMidYMid meet">
  <path d="M159 137.9c1.7 0 3.4-.9 4.3-2.5 1.2-2 .8-4.5-.8-6.1-4.5-4.4-44.3-42.6-67.6-33.2-5.9 2.4-6.6 6.3-6.5 8.4.2 4.7 3.3 10.6 36.3 22.6 16.3 5.9 32.7 10.6 32.9 10.7.5.1.9.1 1.4.1zm-28.6-19.4c-19.5-6.9-27.2-11.3-30.2-13.5 8.9-2.1 23.7 6 37 15.9-2.3-.9-4.6-1.6-6.8-2.4z" fill="rgba(221, 221, 221, 1)" stroke="none"/>
  <path d="M315.4 157c1.3-6.7 4.1-13.7 6.8-20.3 6.6-16.4 14.1-35-3.9-49.7-19.2-15.7-44.2-5-61.7 6.7-16.2 10.8-28.9 24.1-31.7 27.2-2.5-2-5.4-3.1-8.4-3.1h-32.2c-3.2 0-6.3 1.3-8.9 3.5-.1-.2-.3-.4-.5-.6-.6-.6-14.3-15.8-32.3-27.8C125 81.2 100 70.5 80.9 86.2 63 100.9 70.5 119.5 77 135.9c2.7 6.7 5.5 13.6 6.8 20.3.8 3.9-1.3 8.7-3.9 14.8-4.9 11.4-11.7 27-3.3 49.2 4.6 12.3 12.9 16.2 19 17.3 1.6.3 3.3.4 5 .4 5.2 0 11-1.3 17.3-4l-27.6 48.7c-1 1.7-.8 3.9.3 5.4 1.2 1.6 3.2 2.3 5.1 1.9l29-6.5 5 34.3c.3 2.1 1.9 3.8 4.1 4.2.3.1.6.1.9.1 1.8 0 3.5-1 4.4-2.6l62.4-114 65.7 120.1c.9 1.6 2.6 2.6 4.4 2.6.3 0 .6 0 .9-.1 2.1-.4 3.8-2.1 4.1-4.2l5-34.3 29 6.5c1.9.4 3.9-.3 5.1-1.9 1.2-1.6 1.3-3.7.3-5.4l-29.6-52.2c4.4 1.4 8.6 2.2 12.5 2.2 1.7 0 3.4-.1 5-.4 6.1-1.1 14.4-5 19-17.3 8.4-22.2 1.6-37.8-3.3-49.2-2.9-6-5-10.8-4.2-14.8zm-131.2-29.2h32.2c4.1 0 10.3 10.9 10.3 27.2 0 16.4-6.2 27.2-10.3 27.2h-32.2c-4.1 0-10.3-10.9-10.3-27.2 0-16.4 6.2-27.2 10.3-27.2zm-87 99.9c-5.3-1-9-4.6-11.5-11-6.9-18.4-1.6-30.8 3.1-41.7 3-7 5.9-13.7 4.6-20.7-1.5-7.7-4.4-15.1-7.3-22.2-7.2-18-10.8-28.6.9-38.2 11.6-9.5 28.3-7.1 49.7 7.2 17 11.3 30.5 26.1 30.6 26.3.6.7 1.4 1.1 2.2 1.4-3.5 6.6-5.6 15.8-5.6 26.3 0 9.8 1.8 18.4 4.9 24.9-.3.2-.5.4-.8.7-27 30.8-55.5 49.7-70.8 47zm40 73.9l-3.6-24.8c-.2-1.4-1-2.6-2.1-3.4-1.1-.8-2.6-1.1-3.9-.8l-23.2 5.2 30.1-53.1c13-8.7 26.8-21.3 40.2-36.5 2.8 2.6 6 4 9.5 4h12.9l-59.9 109.4zm133.5-71.8l30.7 54.2-23.2-5.2c-1.4-.3-2.8 0-3.9.8s-1.9 2-2.1 3.4l-3.6 24.8L207 195.2l1.5-2.8h7.9c2.9 0 5.7-1 8.1-2.9 13.4 15.2 27.4 27.8 40.3 36.5 1.9 1.3 3.8 2.5 5.7 3.6.1-.1.1 0 .2.2zm42.6-12.3c-2.4 6.4-6.2 10-11.5 11-15.4 2.8-43.8-16.1-70.9-47 3.6-6.7 5.7-15.9 5.7-26.5 0-10.4-2.1-19.6-5.6-26.2.2-.2.4-.3.6-.5.1-.1 13.4-14.8 30.5-26.2 21.5-14.3 38.3-16.8 49.9-7.3 11.7 9.6 8.1 20.2.9 38.2-2.9 7.1-5.8 14.5-7.3 22.2-1.3 7 1.5 13.6 4.6 20.7 4.7 10.9 10 23.2 3.1 41.6z" fill="rgba(221, 221, 221, 1)" stroke="none"/>
  <path d="M310.5 105.3c.1-2.1-.6-6-6.5-8.4-23.3-9.4-63.1 28.9-67.6 33.2-1.6 1.6-2 4.1-.8 6.1.9 1.6 2.6 2.5 4.3 2.5.5 0 .9-.1 1.4-.2.2 0 16.6-4.8 32.9-10.7 33.1-11.8 36.1-17.8 36.3-22.5zm-41.8 14c-2.3.8-4.6 1.6-6.8 2.3 11.8-8.8 24.9-16.2 33.9-16.2 1.1 0 2.1.1 3.1.3-3.1 2.3-10.8 6.7-30.2 13.6z" fill="rgba(221, 221, 221, 1)" stroke="none"/>
</svg>
</g></svg></g></g>
<!-- /image 17250 -->

<!-- image 68730 -->
<g id="transformed-68730" data-image="68730" transform="translate(94.52517699520513, 90.67517699520512) rotate(47, 31.144823004794873, 31.144823004794873)"><g><svg version="1.1" width="62.289646009589745px" height="62.289646009589745px" viewBox="0 0 62.289646009589745 62.289646009589745"><g id="original-68730"><svg xmlns="http://www.w3.org/2000/svg" viewBox="0 0 400 400" xmlns:xlink="http://www.w3.org/1999/xlink" version="1.1" preserveAspectRatio="xMidYMid meet">
  <path d="M224.1 123.1c-9.7 0-9.7 15 0 15s9.7-15 0-15z" fill="rgba(221, 221, 221, 1)" stroke="none"/>
  <path d="M197.9 141.1c9.7 0 9.7-15 0-15-9.6 0-9.6 15 0 15z" fill="rgba(221, 221, 221, 1)" stroke="none"/>
  <path d="M219.3 153.3c0 2.8 2.2 5 5 5h58.5c2.8 0 5-2.2 5-5s-2.2-5-5-5h-58.5c-2.8 0-5 2.2-5 5z" fill="rgba(221, 221, 221, 1)" stroke="none"/>
  <path d="M285.3 241.5c-2.7.4-4.7 2.9-4.3 5.6.4 3.2.6 6.5.6 9.7 0 41.2-33.5 74.7-74.7 74.7s-74.7-33.5-74.7-74.7c0-16.1 5.6-30.7 17.1-44.5 1 .7 2 1.3 3.1 2 3.1 1.8 7.3 3.4 12.2 4.7l-14.9 42c-.5 1.4-.3 3 .5 4.3.8 1.3 2.2 2.1 3.7 2.3l2.9.3-2.7 9.1c-.8 2.7.8 5.4 3.4 6.2.5.1.9.2 1.4.2 2.2 0 4.2-1.4 4.8-3.6l3.1-10.8 4.2.5-2.2 9.9c-.6 2.7 1.1 5.4 3.8 6 .4.1.7.1 1.1.1 2.3 0 4.4-1.6 4.9-3.9l2.4-11 4.7.5-2.3 10.3c-.6 2.7 1.1 5.4 3.8 6 .4.1.7.1 1.1.1 2.3 0 4.4-1.6 4.9-3.9l2.5-11.4 3.7.4h.5c2.4 0 4.4-1.7 4.9-4l9.3-46c14.2-.8 27.5-3.2 36.7-7 5.4-2.3 9.3-5 11.6-8.2 3.6 4.1 6.8 8.5 9.4 13.2.9 1.6 2.6 2.6 4.4 2.6.8 0 1.7-.2 2.4-.6 2.4-1.3 3.3-4.4 1.9-6.8-3.7-6.7-8.4-12.9-13.8-18.4-.3-.3-.6-.5-.9-.7.8-6.4-.2-11.4-2.9-14.9-2.2-2.9-5.2-4.3-7.6-4.8.5-.9 1-1.7 1.5-2.6 1.3-2.4.4-5.5-2-6.8-2.4-1.3-5.5-.4-6.8 2-2.5 4.6-5.7 8.7-9.6 12.2-.6.5-1 1.1-1.2 1.8-43.7 16.6-60.1 1.9-71.4-8.1-2-1.8-3.9-3.5-5.8-4.8-.1-.4-.2-.7-.4-1.1-2.8-4.8-4.6-10.1-5.6-15.5.5-.3.9-.7 1.3-1.2 30.4-40.3 81.1-37.9 81.6-37.9.4 0 .8 0 1.2-.1 5.6 6.7 9.2 14.6 10.6 23.2.4 2.5 2.5 4.2 4.9 4.2.3 0 .5 0 .8-.1 2.7-.4 4.6-3 4.2-5.7-1.8-11.3-6.8-21.6-14.6-30.1 1.5-4.9 1.3-9.5-.5-13.7-3.7-8.7-12.9-11.6-14-11.9-.4-.1-.9-.2-1.4-.2h-2.3c-.1-.3-.3-.6-.5-.9-.2-.4-6-9-17.5-14.4-19.1-8.8-38.8-2-52.1 5.2-29.3 16.1-36.8 40.6-37.9 58.4-.7 11.5 1 21.5 2.6 27.8-4.1 2.6-6.8 7.1-6.8 12.3 0 8 6.5 14.6 14.6 14.6 8 0 14.6-6.5 14.6-14.6 0-6.3-4-11.6-9.5-13.6.5-2.3 1.3-5 2.5-8 .3.4.6.8 1 1.2 2.2 2.4 4.7 3.9 7.1 4.8.7 4.9 1.9 9.5 3.7 14-1.6.6-2.7 1.5-3.3 2.2-3.5 4-2.3 10.9-.8 15.7-2.4 2.3-5.2 6.1-5.2 11.1 0 3.1 1.1 6.1 3.3 9-8.3 9.9-14 20.2-17 31.2l-9.9-2.6-2.5-16.8c-.4-2.7-2.9-4.6-5.7-4.2-2.7.4-4.6 2.9-4.2 5.7l1.9 12.6-17.9-4.6c-2.7-.7-5.4.9-6.1 3.6-.7 2.7.9 5.4 3.6 6.1l38.9 10c-.5 3.4-.7 6.8-.7 10.3 0 46.7 38 84.7 84.7 84.7s84.7-38 84.7-84.7c0-3.7-.2-7.4-.7-11-.1-2.7-2.6-4.6-5.4-4.2zm-89 20.6l-34.9-3.8 13.2-37.4c8.4 1.3 17.9 2 27.5 2h2l-7.8 39.2zm-5.4-62.3c17.3 3.3 38.3-.9 63.9-12.8.2.1.4.3.6.6.7 1 2.2 4.1.1 12.4-.2 1-1.5 3.5-8.1 6.2-17.1 7.2-53 8.5-75.3 4.1-6-1.2-11-2.8-14.4-4.8-2.4-1.4-4.2-2.7-5.5-3.9 0 0-.1 0-.1-.1-2.8-2.6-3.3-4.4-3.3-5.2 0-2.3 2.8-4.6 3.7-5.1 2.1-1.3 3-3.9 2.1-6.2-1.1-2.6-1.9-6-2-7.9 1.9.8 4.5 3.1 7.2 5.5 6.6 6.1 15.7 14.3 31.1 17.2zm-62.5-70.2c1.4-22.2 12.4-39.1 32.8-50.2 29-15.9 46.2-4.8 53 1.9-28.6 2.6-47.9 13.2-59.5 22.4-14.9 11.6-20.9 23.4-21.1 23.9-.2.5-.4 1-.5 1.5-.2 1.2-.3 2.3-.4 3.4-1.6 2.6-3 5.2-4.1 7.7-.3-3.3-.4-6.9-.2-10.6zm.4 44c-2.5 0-4.6-2-4.6-4.6 0-1.1.4-2.1 1.1-2.9.7.4 1.6.7 2.5.7.3 0 .5 0 .8-.1 1.1-.2 2.1-.7 2.8-1.5 1.2.8 2 2.2 2 3.8 0 2.6-2.1 4.6-4.6 4.6zm14-42.2c1.4-2.4 7.1-11.4 18.5-20.2 17.6-13.6 40-20.5 66.5-20.5h.1c1.5.6 5.5 2.5 7.1 6.1.9 2.2.8 4.9-.4 8.1-12.6.1-55.8 3.1-85 39.7-1.5-.3-3.4-1-4.8-2.6-2-2.2-2.7-5.8-2-10.6z" fill="rgba(221, 221, 221, 1)" stroke="none"/>
  <path d="M316.1 215.9c-1.2-2.5-4.2-3.5-6.7-2.3l-48 23.5c-2.5 1.2-3.5 4.2-2.3 6.7.9 1.8 2.6 2.8 4.5 2.8.7 0 1.5-.2 2.2-.5l48-23.5c2.5-1.2 3.6-4.2 2.3-6.7z" fill="rgba(221, 221, 221, 1)" stroke="none"/>
</svg>
</g></svg></g></g>
<!-- /image 68730 -->
</defs><rect x="0" y="0" width="250" height="250" fill="rgba(236, 191, 191, 1)"></rect><use xlink:href="#transformed-17250" transform="translate(-250, -250)"></use><use xlink:href="#transformed-17250" transform="translate(0, -250)"></use><use xlink:href="#transformed-17250" transform="translate(250, -250)"></use><use xlink:href="#transformed-17250" transform="translate(-250, 0)"></use><use xlink:href="#transformed-17250" transform="translate(0, 0)"></use><use xlink:href="#transformed-17250" transform="translate(250, 0)"></use><use xlink:href="#transformed-17250" transform="translate(-250, 250)"></use><use xlink:href="#transformed-17250" transform="translate(0, 250)"></use><use xlink:href="#transformed-17250" transform="translate(250, 250)"></use><use xlink:href="#transformed-68730" transform="translate(-250, -250)"></use><use xlink:href="#transformed-68730" transform="translate(0, -250)"></use><use xlink:href="#transformed-68730" transform="translate(250, -250)"></use><use xlink:href="#transformed-68730" transform="translate(-250, 0)"></use><use xlink:href="#transformed-68730" transform="translate(0, 0)"></use><use xlink:href="#transformed-68730" transform="translate(250, 0)"></use><use xlink:href="#transformed-68730" transform="translate(-250, 250)"></use><use xlink:href="#transformed-68730" transform="translate(0, 250)"></use><use xlink:href="#transformed-68730" transform="translate(250, 250)"></use></svg>